<svg width="46" height="46" viewBox="0 0 46 46" fill="none" xmlns="http://www.w3.org/2000/svg">
<path d="M35.3993 22.5407C41.2789 22.057 45.894 17.1938 45.8807 11.2664C45.8701 5.03056 40.7355 -0.0104332 34.4159 2.5357e-05L34.4609 22.4937H34.3947V33.8176H24.0855C29.8803 33.2502 34.4 28.421 34.3867 22.559C34.3735 16.7101 29.8511 11.9018 24.0696 11.3397L34.4026 11.3214C34.3894 5.0907 29.2547 0.0496931 22.9404 0.0549223C16.6261 0.0496931 11.4914 5.08809 11.4782 11.3214L21.8111 11.3397C16.0297 11.8992 11.5073 16.7075 11.4941 22.559C11.4808 28.421 16.0005 33.2529 21.7952 33.8176H11.4861V22.4937H11.4198L11.4649 2.5357e-05C5.14265 -0.0130478 0.00798099 5.03056 2.84768e-05 11.2664C-0.0132257 17.1938 4.60188 22.057 10.4814 22.5407C4.63369 23.0401 0.0424419 27.885 0.0424419 33.781C0.0424419 40.0221 5.16386 45.0788 11.4861 45.0788V34.202C11.6929 40.2575 16.7348 45.1102 22.9271 45.1102H22.9404H22.9536C29.146 45.1102 34.1879 40.2575 34.3947 34.202V45.0788C40.7169 45.0788 45.8383 40.0221 45.8383 33.781C45.8357 27.8824 41.2471 23.0401 35.3993 22.5407Z" fill="#D6C283"/>
</svg>
