<svg width="46" height="46" viewBox="0 0 46 46" fill="none" xmlns="http://www.w3.org/2000/svg">
<path d="M45.9572 15.6433V0H36.6209C32.2523 0.020917 28.7161 3.51668 28.7161 7.8282C28.7161 11.9933 32.0164 15.4002 36.1729 15.6433H16.3712C20.5383 15.4054 23.8412 11.9985 23.8412 7.8282C23.8412 3.50622 20.2864 0 15.902 0C11.5228 0 7.9733 3.49576 7.96535 7.81251L0.0419922 0V15.6459C0.0419922 21.3354 2.17327 26.5306 5.68828 30.5101C2.17592 34.487 0.0419922 39.6848 0.0419922 45.3743H45.9545C45.9545 39.6848 43.8206 34.4896 40.3082 30.5101C43.8232 26.5306 45.9572 21.3354 45.9572 15.6433L36.6077 15.6459L36.6474 0.0470633L45.9572 15.6433Z" fill="#D6C283"/>
<path d="M26.2665 5.34953C27.7642 5.34953 28.9783 4.152 28.9783 2.67477C28.9783 1.19753 27.7642 0 26.2665 0C24.7688 0 23.5547 1.19753 23.5547 2.67477C23.5547 4.152 24.7688 5.34953 26.2665 5.34953Z" fill="#D6C283"/>
</svg>
