<svg width="100" height="100" viewBox="0 0 100 100" fill="none" xmlns="http://www.w3.org/2000/svg">
<path fill-rule="evenodd" clip-rule="evenodd" d="M50 98C76.5097 98 98 76.5097 98 50C98 23.4903 76.5097 2 50 2C23.4903 2 2 23.4903 2 50C2 76.5097 23.4903 98 50 98Z" fill="black" stroke="#D6C283" stroke-width="3"/>
<g clip-path="url(#clip0_1497_27445)">
<path d="M48.008 25C49.0042 25 50.0005 25 50.9967 25C51.1255 25.0284 51.2524 25.0739 51.3812 25.0814C54.9552 25.3239 58.3417 26.2671 61.4725 27.9963C68.6527 31.9643 73.0506 37.9891 74.598 46.0595C74.7836 47.0311 74.8688 48.0217 74.9995 49.0028C74.9995 49.999 74.9995 50.9953 74.9995 51.9915C74.9711 52.1355 74.9256 52.2775 74.9143 52.4215C74.6661 55.9803 73.7438 59.363 71.9994 62.4654C67.3022 70.818 60.1391 75.3636 50.5706 75.9545C45.9719 76.2386 41.5702 75.2481 37.5436 72.9961C29.1815 68.316 24.6378 61.1434 24.0468 51.573C23.7627 46.9743 24.7741 42.5878 26.9977 38.5441C30.9524 31.3506 36.9867 26.9565 45.0609 25.4034C46.0325 25.2159 47.025 25.1326 48.008 25ZM49.4796 29.9453C38.1345 29.9794 28.9144 39.2221 28.9504 50.5199C28.9864 61.8631 38.2292 71.085 49.527 71.0491C60.8702 71.0131 70.0921 61.7703 70.0561 50.4725C70.0201 39.1293 60.7774 29.9093 49.4796 29.9453Z" fill="#D6C283"/>
<path d="M49.1895 32.0986C49.1895 44.3888 49.1895 56.6431 49.1895 68.8954C58.4815 69.0299 67.5765 61.4785 67.5746 50.4951C67.5727 39.4909 58.4531 31.9584 49.1895 32.0986Z" fill="#D6C283"/>
<path d="M38.4064 52.5407C36.4991 52.5407 34.6297 52.5407 32.7168 52.5407C32.7168 51.1846 32.7168 49.8398 32.7168 48.4629C34.607 48.4629 36.4897 48.4629 38.4064 48.4629C38.4064 49.8152 38.4064 51.1505 38.4064 52.5407Z" fill="#D6C283"/>
<path d="M38.6364 43.7714C37.3485 43.0251 36.1211 42.3149 34.8711 41.5913C35.1514 41.1046 35.4147 40.65 35.6912 40.1689C36.9621 40.9019 38.1894 41.6122 39.4565 42.3433C39.1819 42.8206 38.9243 43.2713 38.6364 43.7714Z" fill="#D6C283"/>
<path d="M38.6364 57.2266C38.9262 57.7266 39.18 58.1679 39.4565 58.6471C38.1989 59.3744 36.9621 60.0884 35.6912 60.8233C35.4147 60.3441 35.159 59.9047 34.8711 59.4047C36.1211 58.6831 37.3541 57.969 38.6364 57.2266Z" fill="#D6C283"/>
<path d="M45.1669 37.2619C44.6782 37.5441 44.2388 37.7998 43.7464 38.0858C43.0191 36.8357 42.2993 35.6008 41.5645 34.3375C42.0512 34.0534 42.4906 33.7977 42.9793 33.5117C43.7047 34.758 44.4168 35.9777 45.1669 37.2619Z" fill="#D6C283"/>
<path d="M43.7443 62.9082C44.231 63.1923 44.6799 63.4537 45.1648 63.7378C44.428 65.0011 43.7159 66.2265 42.981 67.486C42.5094 67.2133 42.07 66.9614 41.5586 66.6659C42.2878 65.4102 43.0056 64.1772 43.7443 62.9082Z" fill="#D6C283"/>
<path d="M53.9777 52.5256C54.0971 52.821 54.2486 53.0407 54.4342 53.1828C54.6198 53.3267 54.8452 53.3987 55.1103 53.3987C55.4172 53.3987 55.6577 53.2907 55.8339 53.0748C56.01 52.8589 56.099 52.5615 56.099 52.1865C56.099 51.7187 55.9986 51.3702 55.7941 51.141C55.5914 50.9119 55.2808 50.7963 54.8622 50.7963C54.8281 50.7963 54.7353 50.8001 54.5857 50.8077C54.474 50.8153 54.3906 50.8191 54.3319 50.8191V49.641C54.3887 49.6448 54.4474 49.6467 54.5081 49.6505C54.5668 49.6523 54.6255 49.6561 54.6842 49.6599C55.0857 49.6599 55.3945 49.5633 55.6104 49.3701C55.8263 49.177 55.9324 48.9004 55.9324 48.5387C55.9324 48.2584 55.8528 48.0311 55.6937 47.8568C55.5346 47.6826 55.3244 47.5955 55.0649 47.5955C54.8622 47.5955 54.6728 47.6485 54.4986 47.7527C54.3243 47.8587 54.1425 48.0292 53.955 48.2678L52.9891 47.6523C53.1766 47.247 53.4739 46.925 53.8792 46.6901C54.2865 46.4553 54.7505 46.3359 55.2751 46.3359C55.9229 46.3359 56.4324 46.5064 56.8017 46.8473C57.171 47.1882 57.3566 47.6617 57.3566 48.2678C57.3566 48.694 57.2619 49.0576 57.0725 49.3607C56.8831 49.6637 56.6028 49.8986 56.2297 50.0671C56.6597 50.2281 56.9835 50.4838 57.2032 50.8342C57.4229 51.1846 57.5347 51.624 57.5347 52.1543C57.5347 52.9176 57.3188 53.5256 56.8888 53.9783C56.457 54.4328 55.8793 54.6601 55.1558 54.6601C54.5459 54.6601 54.0346 54.5162 53.6179 54.2283C53.2031 53.9404 52.9171 53.5313 52.7637 52.9972L53.9777 52.5256Z" fill="black"/>
<path d="M59.1726 51.0541L59.5457 46.5596H63.2068V47.7831H60.487L60.309 49.679C60.5041 49.5597 60.6954 49.4726 60.8829 49.4176C61.0704 49.3627 61.2598 49.3343 61.453 49.3343C62.0818 49.3343 62.578 49.5616 62.9417 50.0161C63.3053 50.4707 63.4872 51.0919 63.4872 51.8817C63.4872 52.7549 63.2769 53.4367 62.8546 53.9254C62.4322 54.414 61.8469 54.6584 61.095 54.6584C60.5514 54.6584 60.095 54.5447 59.7275 54.3174C59.3601 54.0902 59.0779 53.7435 58.8828 53.2795L60.0495 52.7056C60.1878 52.9784 60.3298 53.1697 60.4776 53.2795C60.6253 53.3913 60.8071 53.4462 61.0268 53.4462C61.3488 53.4462 61.595 53.3231 61.7674 53.075C61.9397 52.8268 62.0269 52.4727 62.0269 52.0086C62.0269 51.5635 61.9492 51.2264 61.7958 50.9934C61.6424 50.7624 61.4227 50.6449 61.1348 50.6449C60.9359 50.6449 60.7617 50.6942 60.612 50.7908C60.4624 50.8893 60.3147 51.0541 60.1688 51.2889L59.1726 51.0541Z" fill="black"/>
</g>
<defs>
<clipPath id="clip0_1497_27445">
<rect width="51" height="51" fill="white" transform="translate(24 25)"/>
</clipPath>
</defs>
</svg>
