<svg width="100" height="100" viewBox="0 0 100 100" fill="none" xmlns="http://www.w3.org/2000/svg">
<path fill-rule="evenodd" clip-rule="evenodd" d="M50 98C76.5097 98 98 76.5097 98 50C98 23.4903 76.5097 2 50 2C23.4903 2 2 23.4903 2 50C2 76.5097 23.4903 98 50 98Z" fill="black" stroke="#D6C283" stroke-width="3"/>
<g clip-path="url(#clip0_1497_27447)">
<path d="M76 59.129C75.9339 60.3357 75.8535 61.5425 75.8029 62.7506C75.6603 66.1725 75.5306 69.5957 75.3932 73.0175C75.3698 73.6102 75.1312 73.936 74.7007 73.9924C74.1924 74.0594 73.8203 73.6397 73.8436 72.9787C73.9149 70.9996 74.0005 69.0218 74.0796 67.0427C74.2002 64.0311 74.3247 61.0182 74.4362 58.0053C74.4505 57.6178 74.396 57.229 74.3662 56.7342C74.1794 56.9031 74.064 56.9957 73.9616 57.1016C73.3612 57.717 72.7725 58.3446 72.1644 58.952C71.3111 59.8047 70.9053 60.8251 70.9131 62.0614C70.9325 65.5946 70.9195 69.1264 70.9195 72.6595C70.9195 73.5874 70.6913 73.9856 70.1545 73.9991C69.6099 74.0125 69.3661 73.6089 69.3661 72.6931C69.3661 69.1961 69.3868 65.6992 69.357 62.2022C69.3428 60.4189 69.925 58.9372 71.1685 57.709C71.9647 56.9219 72.731 56.1026 73.605 55.2016C73.0993 54.8664 72.6766 54.4936 72.1877 54.2804C70.904 53.7186 69.593 53.2265 68.2444 52.6875C68.1368 52.8444 68.0266 52.9972 67.9242 53.1541C67.1293 54.385 66.3357 55.6159 65.5408 56.8468C64.6085 58.2936 63.964 58.5604 62.3082 58.1367C62.3082 58.3016 62.303 58.4518 62.3095 58.6007C62.5104 63.3594 62.7114 68.1181 62.9137 72.8754C62.9487 73.6974 62.4521 74.1935 61.8556 73.9253C61.4886 73.7604 61.3823 73.4439 61.3655 73.0605C61.2786 71.0116 61.1839 68.9615 61.0944 66.9126C60.9868 64.4361 60.8844 61.9582 60.7781 59.4816C60.7755 59.4132 60.7599 59.3462 60.7456 59.2523C60.2205 59.2523 59.7135 59.2523 59.1663 59.2523C59.1261 60.0743 59.082 60.8721 59.0483 61.6685C58.8952 65.3036 58.7474 68.94 58.5931 72.5764C58.5814 72.8593 58.5685 73.1503 58.5023 73.4225C58.4064 73.8207 58.1069 74.0192 57.7282 73.9843C57.3535 73.9508 57.0889 73.7215 57.0423 73.3058C57.0228 73.1302 57.028 72.9492 57.0358 72.7722C57.2355 68.0322 57.4378 63.291 57.6387 58.551C57.6439 58.4277 57.64 58.3043 57.64 58.1689C57.2147 58.2319 56.7972 58.366 56.39 58.3405C55.6003 58.2896 55.0168 57.8377 54.5837 57.1566C53.7318 55.8157 52.8656 54.4842 52.0033 53.1501C51.9086 53.0039 51.8088 52.8604 51.6791 52.67C50.2514 53.2627 48.8329 53.8513 47.4156 54.444C47.2405 54.5177 47.0849 54.6465 46.9073 54.7055C46.5182 54.8355 46.1798 54.7323 45.9684 54.3609C45.7558 53.9868 45.8206 53.606 46.1539 53.3619C46.5014 53.1072 46.8943 52.9087 47.2846 52.7277C47.7397 52.5172 48.2053 52.3161 48.6824 52.1726C50.5627 51.6081 52.1096 50.5729 53.4543 49.0712C53.9756 48.4893 54.1753 48.0025 54.0962 47.316C54.0624 47.0183 53.973 46.6831 53.7966 46.4565C53.0264 45.467 52.4727 44.3755 52.1926 43.1406C52.1213 42.8268 52.0137 42.6619 51.661 42.6364C50.9789 42.5881 50.4745 42.1872 50.1166 41.5986C49.3995 40.4186 49.6926 38.5897 50.7598 37.7476C51.0476 37.5197 50.9296 37.2958 50.9076 37.041C50.7714 35.4829 50.525 33.9249 50.538 32.3681C50.5549 30.2375 51.7232 28.9047 53.7214 28.4005C53.8991 28.3563 54.0728 28.2597 54.2258 28.1525C57.7541 25.6759 61.5314 25.3849 65.3969 27.0396C68.0499 28.1766 69.3778 30.5043 69.6514 33.3952C69.7823 34.7817 69.5969 36.1976 69.5749 37.6015C69.571 37.8254 69.6306 38.0802 69.7395 38.2719C70.362 39.3661 70.3866 40.479 69.8199 41.5798C69.4971 42.2087 68.9447 42.5922 68.2406 42.6418C67.941 42.6632 67.8178 42.7866 67.7582 43.0695C67.4755 44.3836 66.8661 45.5219 66.0595 46.5718C65.8832 46.8011 65.8754 47.19 65.8456 47.5104C65.7924 48.087 65.8209 48.5643 66.4135 48.976C67.0878 49.4439 67.5961 50.1653 68.1965 50.7553C68.3897 50.9444 68.6296 51.1079 68.8759 51.2099C70.0909 51.714 71.315 52.1914 72.5352 52.6835C74.3791 53.4276 75.5332 54.7765 75.9131 56.8039C75.9248 56.8696 75.9715 56.9273 76.0026 56.9889C76 57.7023 76 58.4156 76 59.129ZM53.4789 37.8214C53.5671 37.7235 53.6605 37.6189 53.7538 37.5157C53.8602 37.399 53.9626 37.277 54.0767 37.1684C54.432 36.8305 54.8249 36.8023 55.1452 37.0839C55.4694 37.3695 55.516 37.8496 55.2048 38.2317C54.9183 38.5843 54.6019 38.9182 54.2621 39.2186C53.5736 39.8273 53.2157 39.779 52.487 39.2145C52.2769 39.0523 51.814 38.9745 51.6221 39.1033C51.1527 39.4184 51.2707 39.9855 51.3433 40.4763C51.4042 40.8893 51.6856 41.0462 52.0785 41.085C52.9628 41.1735 53.4348 41.5946 53.6203 42.4701C53.925 43.9089 54.6109 45.1076 55.6418 46.1186C57.972 48.4061 62.054 48.3766 64.3544 46.0596C65.3463 45.0607 66.0154 43.8901 66.3072 42.4889C66.4641 41.7367 66.8829 41.2419 67.6311 41.1038C68.5297 40.9389 68.7424 40.6573 68.6373 39.6999C68.579 39.1649 68.2782 38.9088 67.7634 38.9544C66.5782 39.059 66.3046 38.8874 65.8443 37.7423C65.7781 37.5774 65.69 37.4191 65.6498 37.2488C65.5603 36.864 65.3385 36.8104 64.9975 36.8788C63.3429 37.2059 61.6741 37.2783 60.0026 37.0692C57.8955 36.8064 55.9829 36.0917 54.5163 34.4049C54.0547 33.8753 53.9989 33.4006 54.3672 33.052C54.7419 32.698 55.1322 32.8026 55.6639 33.3108C56.1034 33.7304 56.5586 34.1582 57.0708 34.4679C58.5763 35.377 60.2516 35.6291 61.958 35.5486C63.1925 35.4896 64.4231 35.2885 65.6511 35.1169C66.1801 35.0431 66.5159 35.2134 66.7092 35.7243C66.8596 36.1225 67.0619 36.502 67.1812 36.9083C67.3238 37.391 67.5896 37.4701 68.1135 37.2328C68.1459 36.2633 68.2406 35.2335 68.1991 34.2091C68.1446 32.8589 67.8114 31.5663 67.045 30.4373C65.9752 28.8618 64.436 28.1082 62.6479 27.8253C59.8237 27.3775 57.1914 27.8119 54.8638 29.6542C54.6576 29.8178 54.3724 29.9036 54.1104 29.9573C52.8669 30.2187 52.0928 31.0259 52.0954 32.348C52.0979 33.6942 52.2808 35.0391 52.3651 36.3867C52.4117 37.1161 52.6892 37.6323 53.4789 37.8214ZM64.283 48.1674C61.3719 49.865 58.5387 49.8395 55.6626 48.1862C55.6626 48.4638 55.682 48.6435 55.6587 48.8178C55.5757 49.4386 55.7922 49.8663 56.2746 50.2726C57.4494 51.2635 58.5685 52.3268 59.7109 53.3592C59.7964 53.437 59.8976 53.4947 59.9974 53.5657C61.3693 52.3241 62.7218 51.1066 64.0639 49.8784C64.1676 49.7832 64.2636 49.6209 64.2727 49.4842C64.2999 49.0779 64.283 48.6703 64.283 48.1674ZM61.1165 54.6867C61.7298 55.3263 62.3082 55.9592 62.9215 56.5559C63.2599 56.8857 63.6775 56.8254 63.9472 56.4151C64.9534 54.8825 65.9389 53.3378 66.905 51.8401C66.4783 51.4003 66.0828 50.9913 65.6692 50.5649C64.1767 51.9178 62.6596 53.2909 61.1165 54.6867ZM53.0056 51.7998C53.9911 53.3297 54.9675 54.8583 55.9608 56.3748C56.2629 56.8361 56.6792 56.8911 57.0552 56.5196C57.653 55.9324 58.2236 55.3156 58.8265 54.6907C57.2757 53.2882 55.7495 51.9084 54.2103 50.5166C53.807 50.947 53.4258 51.352 53.0056 51.7998ZM59.9689 55.8573C59.2077 56.4539 59.1001 56.7369 59.3167 57.5883C59.7576 57.5883 60.1984 57.5883 60.6341 57.5883C60.8092 56.8267 60.6367 56.2381 59.9689 55.8573Z" fill="#D6C283"/>
<path d="M25.0519 59.9735C24.6499 60.6788 24.5203 61.364 24.5488 62.0881C24.6655 64.9575 24.7861 67.8269 24.9041 70.6964C24.9339 71.4271 24.9611 72.1579 24.9871 72.8887C25.0104 73.5739 24.764 73.9587 24.2804 73.9962C23.7967 74.0351 23.4673 73.6409 23.4362 72.941C23.3584 71.2475 23.2949 69.5553 23.2248 67.8618C23.1509 66.061 23.0692 64.2616 23.0057 62.4608C22.9098 59.7 24.0223 57.8778 26.4588 56.7769C26.7428 56.6482 27.0203 56.498 27.312 56.3961C29.0626 55.786 30.5719 54.8099 31.739 53.3081C31.7921 53.2398 31.8518 53.1526 31.927 53.1271C32.6039 52.8885 32.4327 52.3052 32.4133 51.8064C32.4081 51.6656 32.2732 51.4926 32.1513 51.4001C30.5499 50.1732 29.5009 48.5696 29.038 46.565C28.977 46.2981 28.8811 46.1815 28.5997 46.1654C27.9345 46.1292 27.4287 45.7685 27.0553 45.2161C26.333 44.1501 26.499 42.3936 27.3639 41.4496C27.4962 41.3048 27.5649 41.0044 27.5273 40.8033C27.1253 38.6512 27.4352 36.6172 28.4246 34.6917C29.1158 33.3455 30.0792 32.2406 31.3033 31.3865C31.56 31.2068 31.7001 31.0124 31.7416 30.6678C32.0217 28.3615 33.7061 26.5272 35.8391 26.1598C38.2536 25.7441 40.5345 26.9026 41.5161 29.0815C41.7236 29.5428 41.8558 30.059 41.922 30.5632C41.9699 30.9319 42.0815 31.1666 42.3758 31.3851C45.2272 33.5037 46.5369 36.3785 46.2802 40.0055C46.2737 40.094 46.2698 40.1852 46.2477 40.271C46.0999 40.8315 46.1012 41.2793 46.5564 41.7902C47.3162 42.6443 47.2644 44.4706 46.5317 45.3233C46.2374 45.6653 45.8056 46.0273 45.3984 46.0836C44.8071 46.1654 44.6723 46.4564 44.5387 46.9645C44.0706 48.7452 43.0968 50.1933 41.6587 51.2808C41.3138 51.5422 41.2269 51.8185 41.236 52.2207C41.2451 52.5908 41.3242 52.808 41.6522 53.0695C42.3304 53.6085 42.8906 54.3057 43.5182 54.9158C43.7257 55.1183 43.9746 55.294 44.2327 55.4173C45.423 55.9805 46.6484 56.4685 47.8142 57.0813C49.8098 58.1312 50.7538 59.8877 50.6786 62.1779C50.5619 65.762 50.3881 69.3435 50.2377 72.9249C50.2351 72.9785 50.2351 73.0322 50.2312 73.0858C50.1936 73.661 49.8733 74.023 49.4221 73.9962C48.9682 73.9708 48.6674 73.5913 48.6855 73.0107C48.7206 71.9233 48.7776 70.8358 48.823 69.7497C48.9293 67.1659 49.0434 64.5807 49.1342 61.9969C49.1588 61.2983 49.0486 60.6158 48.6103 59.9655C47.8206 60.9845 47.0284 61.9486 46.3009 62.965C45.7381 63.7521 45.6111 64.696 45.6124 65.6588C45.615 68.0321 45.6137 70.4054 45.6124 72.7774C45.6124 73.5926 45.353 73.9935 44.8369 73.9949C44.3183 73.9976 44.0576 73.598 44.0589 72.7827C44.0667 70.2137 44.068 67.6446 44.0926 65.0768C44.1056 63.6234 44.68 62.3844 45.5605 61.2822C46.2179 60.4589 46.8792 59.6397 47.6132 58.7265C46.2866 58.1178 45.0224 57.5359 43.7101 56.9325C43.4962 57.2798 43.2913 57.6016 43.0955 57.9301C42.5509 58.8392 42.0166 59.755 41.4668 60.6614C40.8198 61.7301 39.8861 61.8843 38.9421 61.0811C38.5311 60.7311 38.1304 60.3678 37.6117 59.9119C37.6117 60.2149 37.6117 60.3959 37.6117 60.5769C37.6117 64.6451 37.6117 68.7133 37.6117 72.7814C37.6117 73.602 37.3602 73.9962 36.8428 73.9962C36.3228 73.9962 36.0596 73.5913 36.0596 72.7801C36.0583 68.7293 36.0596 64.68 36.0596 60.6292C36.0596 60.4388 36.0596 60.2498 36.0596 59.9373C35.5694 60.3637 35.17 60.7164 34.7642 61.0623C33.7942 61.8896 32.8658 61.7381 32.2058 60.6426C31.56 59.5673 30.9221 58.4865 30.2802 57.4098C30.192 57.261 30.0935 57.1175 29.9781 56.9378C28.684 57.5305 27.4132 58.1111 26.0737 58.7239C26.7597 59.578 27.373 60.3678 28.0136 61.1334C29.1248 62.4595 29.6526 63.9854 29.6318 65.7433C29.6046 68.0978 29.6254 70.4537 29.6241 72.8082C29.6241 72.9866 29.6357 73.1689 29.6007 73.3419C29.5216 73.7388 29.248 74.0284 28.8823 73.9681C28.6126 73.9238 28.3403 73.6637 28.1497 73.4304C28.0408 73.2963 28.0745 73.0214 28.0745 72.8096C28.0706 70.4725 28.046 68.134 28.081 65.7982C28.103 64.3876 27.6946 63.1795 26.7934 62.127C26.2124 61.4471 25.6665 60.7351 25.0519 59.9735ZM30.3437 41.3544C30.511 41.1694 30.7003 40.9414 30.9091 40.7309C31.2761 40.3608 31.6845 40.3313 32.0152 40.633C32.3471 40.9361 32.3834 41.3852 32.0606 41.7795C31.7831 42.1174 31.477 42.4365 31.1516 42.7248C30.4643 43.3348 30.0805 43.2986 29.3764 42.7422C29.1702 42.5786 28.7527 42.4687 28.5517 42.5746C28.0304 42.8521 28.1497 43.4314 28.1977 43.9181C28.2392 44.3338 28.4933 44.5617 28.929 44.5993C29.8328 44.6757 30.297 45.0914 30.4993 46.0139C30.7276 47.0597 31.1723 47.9863 31.7921 48.8391C33.4519 51.1199 36.8389 52.0021 39.3519 50.8235C41.4111 49.8568 42.6844 48.2464 43.1914 45.9737C43.3769 45.141 43.8865 44.6274 44.693 44.6087C45.4944 44.5899 45.5877 43.8605 45.4866 43.1324C45.4062 42.5598 45.0327 42.3198 44.4051 42.5357C43.797 42.7462 43.3289 42.6242 42.9152 42.1576C42.6001 41.8022 42.2254 41.7352 41.7599 41.7365C39.0952 41.7446 36.5018 41.3557 34.0964 40.0685C32.9968 39.4799 32.0139 38.725 31.2436 37.722C31.0764 37.5048 31.0271 37.0811 31.1049 36.8076C31.1606 36.6105 31.5185 36.3825 31.7364 36.3865C31.9879 36.3919 32.2564 36.6091 32.4781 36.7848C33.1718 37.3359 33.7955 38.0049 34.5424 38.4582C36.717 39.7776 39.1392 40.1342 41.6133 40.1248C42.4406 40.1222 43.172 40.1771 43.8022 40.8127C44.1199 41.1318 44.5452 40.9253 44.6295 40.4748C44.9316 38.8483 44.7695 37.2742 44.0654 35.7845C41.8169 31.0325 35.6693 29.6541 31.7286 33.0491C29.4866 34.98 28.5335 37.4592 29.0704 40.4748C29.0989 40.637 29.2143 40.8355 29.3466 40.9133C29.6396 41.0876 29.9703 41.1948 30.3437 41.3544ZM36.8622 57.0465C37.5871 56.2889 38.2328 55.4857 39.0044 54.8448C39.807 54.1784 39.7435 53.3806 39.6424 52.458C37.7609 53.1298 35.9014 53.1164 33.981 52.4406C33.981 52.8469 33.9641 53.1808 33.9862 53.512C34.003 53.7493 33.9939 54.0577 34.1301 54.2052C35.0067 55.1558 35.9182 56.073 36.8622 57.0465ZM32.5183 54.9279C32.1267 55.3181 31.7351 55.7083 31.3318 56.1119C32.0774 57.3642 32.8334 58.6327 33.6231 59.9601C34.3272 59.3393 35.0002 58.7467 35.6524 58.1714C34.5723 57.0518 33.5284 55.9724 32.5183 54.9279ZM38.0293 58.1634C38.6854 58.7426 39.3571 59.3353 40.0651 59.9615C40.8677 58.6126 41.6302 57.3334 42.3278 56.1615C41.8934 55.6962 41.5174 55.2953 41.1647 54.9172C40.1429 55.9751 39.099 57.0558 38.0293 58.1634ZM33.5051 30.0309C34.6099 29.8834 35.7419 29.6125 36.8739 29.6152C37.9968 29.6179 39.1185 29.8954 40.2168 30.0483C39.7565 28.5734 38.2471 27.5556 36.6211 27.6696C35.0948 27.7782 33.7087 28.867 33.5051 30.0309Z" fill="#D6C283"/>
<path d="M54.1919 61.3589C54.6574 61.3603 55.1229 61.3428 55.5872 61.3643C56.0682 61.3857 56.3535 61.6767 56.3587 62.1192C56.3652 62.614 56.0903 62.9157 55.6416 62.9304C54.6445 62.9653 53.6434 62.9666 52.6463 62.9264C52.1794 62.9076 51.911 62.5349 51.9512 62.0977C51.9953 61.611 52.2832 61.371 52.7435 61.3603C53.2272 61.3495 53.7095 61.3576 54.1919 61.3589Z" fill="#D6C283"/>
<path d="M32.8692 64.9021C33.231 64.9021 33.5941 64.886 33.9558 64.9062C34.3954 64.9316 34.6625 65.1837 34.6924 65.6436C34.7222 66.1089 34.4693 66.4321 34.044 66.4589C33.2556 66.5085 32.4594 66.5058 31.6698 66.4629C31.238 66.4388 31.0007 66.1049 30.9981 65.6557C30.9955 65.2293 31.3196 64.9263 31.7839 64.9035C32.1456 64.886 32.5074 64.8995 32.8705 64.8995C32.8692 64.8995 32.8692 64.9008 32.8692 64.9021Z" fill="#D6C283"/>
</g>
<defs>
<clipPath id="clip0_1497_27447">
<rect width="53" height="48" fill="white" transform="translate(23 26)"/>
</clipPath>
</defs>
</svg>
