<svg width="100" height="100" viewBox="0 0 100 100" fill="none" xmlns="http://www.w3.org/2000/svg">
<path fill-rule="evenodd" clip-rule="evenodd" d="M50 98C76.5097 98 98 76.5097 98 50C98 23.4903 76.5097 2 50 2C23.4903 2 2 23.4903 2 50C2 76.5097 23.4903 98 50 98Z" fill="black" stroke="#D6C283" stroke-width="3"/>
<g clip-path="url(#clip0_1497_27446)">
<path d="M17.9995 51.4583C18.3282 51.0587 18.7581 50.9639 19.2698 50.9668C22.7205 50.9814 26.1728 50.9683 29.6235 50.9828C30.0623 50.9843 30.217 50.8764 30.2676 50.4214C30.3776 49.4501 30.5814 48.4891 30.7569 47.4654C30.5799 47.4566 30.3881 47.4406 30.1962 47.4391C27.8208 47.4377 25.4454 47.4333 23.0716 47.4406C22.6313 47.442 22.2535 47.3574 22.0646 46.9229C21.8132 46.3468 22.252 45.7985 22.9868 45.7927C24.2674 45.781 25.5481 45.7897 26.8272 45.7897C28.1822 45.7897 29.5358 45.7795 30.8908 45.797C31.2195 45.8014 31.3727 45.7037 31.4887 45.3945C31.7684 44.6493 32.0971 43.9231 32.4317 43.1254C31.1541 43.1254 29.9329 43.1254 28.7118 43.1254C28.6002 43.1254 28.4887 43.1254 28.3771 43.1254C27.5843 43.121 27.1931 42.841 27.2006 42.2839C27.2065 41.7414 27.5754 41.4789 28.3459 41.4775C29.8853 41.4745 31.4263 41.4833 32.9657 41.4673C33.1621 41.4658 33.4357 41.4002 33.5413 41.2646C34.4546 40.0993 35.3381 38.9123 36.2707 37.6785C35.9227 37.2819 35.5151 36.8181 35.0778 36.3194C34.7298 36.6081 34.4085 36.8779 34.0828 37.1419C33.5175 37.6012 33.1249 37.5837 32.6459 37.0529C32.1045 36.4535 31.572 35.8469 31.047 35.2344C30.6141 34.7269 30.6439 34.2908 31.1496 33.8621C33.1442 32.1733 35.1403 30.489 37.1423 28.8104C37.6466 28.3875 38.0541 28.4152 38.4959 28.9008C39.064 29.525 39.6203 30.1594 40.1662 30.804C40.5499 31.256 40.5068 31.6906 40.0591 32.096C39.7334 32.3906 39.3898 32.6692 39.0105 32.9929C39.4537 33.4975 39.8851 33.989 40.3462 34.5154C43.0354 32.8267 45.9358 31.73 49.0995 31.2342C49.0995 30.4058 49.0995 29.5994 49.0995 28.7434C48.1996 28.7434 47.331 28.7463 46.4624 28.7434C44.798 28.7375 43.8073 27.7677 43.7925 26.1286C43.788 25.6196 43.788 25.1092 43.7925 24.6002C43.8088 22.999 44.798 22.0132 46.4341 22.0073C49.7926 21.9957 53.1512 22.0044 56.5097 22.0044C57.2519 22.0044 57.9941 21.9928 58.7363 22.0073C60.3011 22.0394 61.3006 23.0355 61.311 24.5609C61.3155 25.1427 61.3185 25.7246 61.3095 26.3079C61.2857 27.6919 60.2565 28.7127 58.8434 28.7419C57.9346 28.7594 57.0258 28.7521 56.117 28.7579C56.0858 28.7579 56.0531 28.7856 55.9951 28.8119C55.9951 29.5936 55.9951 30.3869 55.9951 31.2283C59.0651 31.7183 61.9268 32.7596 64.5997 34.425C65.0132 33.951 65.4162 33.4902 65.8506 32.9944C65.4772 32.6779 65.1396 32.3994 64.8124 32.1092C64.329 31.679 64.2962 31.2808 64.7187 30.7821C65.2645 30.139 65.8193 29.5017 66.386 28.8775C66.7832 28.44 67.2071 28.389 67.6563 28.7638C69.7044 30.4729 71.7436 32.1938 73.7754 33.9219C74.2291 34.3083 74.2499 34.7137 73.8676 35.1673C73.3128 35.8264 72.7461 36.4769 72.1646 37.1142C71.7511 37.5691 71.3435 37.5808 70.8482 37.1914C70.6742 37.0544 70.5091 36.9085 70.3395 36.7671C70.1715 36.6271 70.0034 36.4871 69.7922 36.3106C69.401 36.7554 69.0291 37.1783 68.7183 37.5312C69.7223 38.87 70.7887 40.1125 71.6514 41.4775C74.4284 45.867 75.4636 50.6576 74.8062 55.7866C74.1859 60.6209 72.108 64.7743 68.6811 68.2903C68.6037 68.369 68.5309 68.4507 68.4476 68.5251C68.0519 68.878 67.5997 68.8984 67.2517 68.5819C66.8917 68.2553 66.8962 67.7886 67.2576 67.3686C68.0103 66.4936 68.8283 65.6638 69.5021 64.7334C77.7825 53.3001 71.9504 37.1769 58.1786 33.3837C46.5352 30.1769 34.4992 37.4131 32.167 49.0229C29.9671 59.972 37.1245 70.6236 48.3171 72.9132C54.0109 74.0784 59.3313 73.0167 64.1936 69.8521C64.3944 69.7209 64.5863 69.5721 64.802 69.4715C65.2125 69.279 65.5724 69.3942 65.8297 69.7442C66.0752 70.0796 66.0484 70.434 65.7643 70.7432C65.6423 70.8759 65.4847 70.9809 65.333 71.0844C54.0793 78.7509 38.3784 74.7375 32.3931 62.6524C32.1908 62.2441 31.9706 62.1041 31.5185 62.1143C30.1828 62.1434 28.8471 62.1303 27.5114 62.1186C27.2779 62.1172 27.0176 62.0851 26.8153 61.9816C26.4673 61.8022 26.3483 61.4741 26.4405 61.0963C26.5402 60.6866 26.8302 60.4868 27.2482 60.4839C28.3801 60.4766 29.512 60.4795 30.6439 60.478C30.8655 60.478 31.0856 60.478 31.3906 60.478C31.1243 59.5636 30.8759 58.7032 30.6097 57.7889C30.4148 57.7889 30.2155 57.7889 30.0147 57.7889C27.4356 57.7889 24.8564 57.7903 22.2773 57.7874C21.6585 57.7874 21.3075 57.5526 21.2302 57.1078C21.135 56.5537 21.5351 56.1482 22.2089 56.1453C24.6214 56.1395 27.034 56.1424 29.445 56.1424C29.7202 56.1424 29.9939 56.1424 30.2735 56.1424C30.1992 54.9524 30.1293 53.8178 30.0564 52.6264C29.8199 52.6264 29.6012 52.6264 29.3826 52.6264C26.0062 52.6264 22.6283 52.6205 19.2519 52.6322C18.7388 52.6337 18.3045 52.5389 17.998 52.1072C17.9995 51.8943 17.9995 51.677 17.9995 51.4583ZM50.8636 28.7711C50.8636 29.5411 50.8636 30.2731 50.8636 30.9935C52.0237 30.9935 53.1422 30.9935 54.2623 30.9935C54.2623 30.2367 54.2623 29.5163 54.2623 28.7711C53.1274 28.7711 52.0207 28.7711 50.8636 28.7711ZM37.6927 30.5211C36.0327 31.921 34.41 33.289 32.7724 34.6715C33.0237 34.9573 33.2364 35.2008 33.4789 35.4779C35.1448 34.0735 36.766 32.7071 38.4111 31.3202C38.1552 31.0373 37.9396 30.7967 37.6927 30.5211ZM72.0947 34.6715C70.4526 33.286 68.8254 31.9152 67.1684 30.5167C66.9215 30.7996 66.7014 31.0519 66.4634 31.326C68.1203 32.7231 69.7356 34.0837 71.3852 35.475C71.6261 35.2023 71.8418 34.9587 72.0947 34.6715ZM47.1317 23.6582C46.8892 23.6582 46.6736 23.6538 46.4579 23.6582C45.7365 23.6742 45.4866 23.9105 45.4777 24.6017C45.4703 25.1617 45.4777 25.7232 45.4777 26.2846C45.4777 26.7338 45.7142 27.0123 46.1515 27.0765C46.4683 27.1217 46.797 27.0852 47.1302 27.0852C47.1317 25.9229 47.1317 24.8263 47.1317 23.6582ZM57.9822 27.1013C58.2262 27.1013 58.4091 27.1027 58.5921 27.1013C59.3655 27.0925 59.6303 26.8388 59.6347 26.0907C59.6392 25.5642 59.6466 25.0377 59.6318 24.5113C59.6169 23.9746 59.3581 23.7063 58.8211 23.6669C58.5504 23.6465 58.2782 23.664 57.9807 23.664C57.9822 24.8292 57.9822 25.9288 57.9822 27.1013ZM50.1466 27.0881C50.1466 25.9302 50.1466 24.819 50.1466 23.699C49.6945 23.699 49.2825 23.699 48.8823 23.699C48.8823 24.8525 48.8823 25.9638 48.8823 27.0881C49.3152 27.0881 49.7004 27.0881 50.1466 27.0881ZM51.9122 23.6961C51.9122 24.8482 51.9122 25.9609 51.9122 27.0663C52.3629 27.0663 52.7644 27.0663 53.1928 27.0663C53.1928 25.9302 53.1928 24.8292 53.1928 23.6961C52.7466 23.6961 52.3316 23.6961 51.9122 23.6961ZM56.2286 27.0838C56.2286 25.9594 56.2286 24.8467 56.2286 23.6946C55.8017 23.6946 55.3882 23.6946 54.9658 23.6946C54.9658 24.8423 54.9658 25.955 54.9658 27.0838C55.4076 27.0838 55.7943 27.0838 56.2286 27.0838ZM38.9584 35.4633C38.5286 34.9748 38.1359 34.53 37.7284 34.0648C37.2375 34.4848 36.8017 34.8567 36.3525 35.2417C36.7779 35.7244 37.1587 36.156 37.5528 36.6037C38.0348 36.2129 38.4735 35.8571 38.9584 35.4633ZM67.4138 36.49C67.7738 36.0802 68.1307 35.6748 68.5175 35.2344C68.0445 34.8362 67.6027 34.4658 67.1327 34.0706C66.7415 34.5169 66.3771 34.9325 66.0038 35.3598C66.4782 35.7389 66.9051 36.0817 67.4138 36.49Z" fill="#D6C283"/>
<path d="M53.3966 37.334C53.3966 38.0501 53.4025 38.683 53.3951 39.3159C53.3876 39.9401 53.056 40.3207 52.5413 40.3149C52.0326 40.3105 51.7247 39.9342 51.7203 39.2955C51.7158 38.664 51.7188 38.0326 51.7188 37.2786C50.7282 37.4332 49.8194 37.5732 48.9121 37.7161C48.7842 37.7365 48.6622 37.7861 48.5343 37.8051C47.9676 37.8926 47.5719 37.6622 47.4678 37.1897C47.3652 36.723 47.627 36.287 48.1832 36.2024C49.5903 35.9895 51.0063 35.6817 52.4194 35.6759C61.1355 35.6438 68.4089 41.534 69.9453 49.969C71.6469 59.3125 65.4623 67.9516 56.3416 69.8956C46.7628 71.9358 37.5067 66.1229 35.3009 56.7648C33.5488 49.3259 37.2553 41.3401 44.1346 37.7642C44.38 37.6374 44.7369 37.5163 44.9601 37.6009C45.2204 37.7001 45.4896 37.9976 45.5758 38.2659C45.7008 38.6538 45.4063 38.928 45.0657 39.1394C44.2521 39.644 43.4459 40.1603 42.6486 40.6896C42.3616 40.8807 42.1117 41.1271 41.7577 41.4203C42.2723 41.8942 42.7676 42.3317 43.2391 42.7911C43.6958 43.2344 43.733 43.7288 43.37 44.0832C42.9967 44.4478 42.5237 44.4084 42.0507 43.9519C41.5881 43.5057 41.1389 43.0478 40.6317 42.5417C38.1374 45.3388 36.8062 48.5384 36.5726 52.295C37.294 52.295 37.9708 52.2994 38.6476 52.2936C39.1354 52.2892 39.4805 52.4861 39.5861 52.9673C39.7006 53.4865 39.2975 53.9196 38.6669 53.94C38.002 53.9619 37.3357 53.9444 36.592 53.9444C36.8642 57.6485 38.2593 60.8175 40.7983 63.6087C41.2773 63.1158 41.7146 62.6448 42.1742 62.1971C42.61 61.7727 43.0889 61.7537 43.4489 62.1139C43.8118 62.4756 43.788 62.9277 43.3477 63.3637C42.9045 63.8027 42.4374 64.2168 41.9897 64.6354C43.5158 66.6216 49.2333 68.8995 51.8244 68.5612C51.8244 67.9764 51.8184 67.38 51.8259 66.785C51.8333 66.1739 52.1293 65.8225 52.6291 65.8079C53.1422 65.7918 53.4903 66.1739 53.5007 66.7893C53.5111 67.3843 53.5022 67.9793 53.5022 68.5714C56.477 68.6181 60.7175 67.011 63.3026 64.5275C62.8564 64.1279 62.3983 63.74 61.9669 63.3243C61.5044 62.8796 61.4687 62.3896 61.8375 62.0337C62.1975 61.6852 62.7077 61.7304 63.1569 62.1737C63.5718 62.585 63.9675 63.0166 64.3631 63.4323C66.4544 61.7464 68.3375 57.3642 68.4996 53.8394C67.8615 53.8394 67.2189 53.8817 66.5883 53.8204C66.2923 53.7927 65.9204 53.6381 65.7464 53.4179C65.3448 52.909 65.7583 52.2279 66.4589 52.2031C67.1223 52.1783 67.7871 52.1973 68.5189 52.1973C68.2958 48.4888 66.9423 45.3198 64.4093 42.4688C63.9348 42.9719 63.5079 43.4473 63.0542 43.898C62.605 44.3442 62.1023 44.3661 61.7409 43.9884C61.4017 43.6355 61.4389 43.1644 61.8762 42.7401C62.3358 42.2938 62.8192 41.8723 63.3309 41.4042C60.4498 38.8974 57.2013 37.5834 53.3966 37.334Z" fill="#D6C283"/>
<path d="M53.3972 48.5852C53.3972 49.2954 53.3734 50.0056 53.4121 50.7129C53.424 50.9244 53.5534 51.1913 53.7199 51.3211C54.3714 51.83 54.654 52.46 54.602 53.2738C54.5901 53.4677 54.6987 53.7229 54.8414 53.8644C56.4954 55.5108 58.1658 57.1398 59.8317 58.7731C59.9373 58.8767 60.0444 58.9758 60.1455 59.0823C60.5218 59.4848 60.5516 59.9646 60.2214 60.3C59.8807 60.6456 59.3676 60.6164 58.9407 60.2227C58.8321 60.1235 58.7295 60.0185 58.6239 59.915C57.0101 58.3327 55.3933 56.7533 53.7869 55.1638C53.5623 54.9406 53.3823 54.8429 53.0268 54.9304C52.0318 55.1769 51.0843 54.6956 50.6782 53.8177C50.2707 52.934 50.5577 51.9686 51.3624 51.3327C51.5424 51.1913 51.6986 50.9084 51.703 50.6867C51.7343 49.2867 51.7164 47.8852 51.7194 46.4838C51.7209 45.7867 52.0139 45.4338 52.5642 45.4425C53.1071 45.4513 53.3912 45.813 53.3957 46.51C53.4002 47.2027 53.3972 47.894 53.3972 48.5852ZM53.0506 52.9792C52.8245 52.8261 52.6639 52.6394 52.5613 52.6656C52.4155 52.7021 52.3114 52.8975 52.1894 53.0244C52.3173 53.1279 52.4408 53.3073 52.5732 53.3117C52.6981 53.3161 52.832 53.1411 53.0506 52.9792Z" fill="#D6C283"/>
</g>
<defs>
<clipPath id="clip0_1497_27446">
<rect width="57" height="53" fill="white" transform="translate(18 22)"/>
</clipPath>
</defs>
</svg>
