<svg width="26" height="23" viewBox="0 0 26 23" fill="none" xmlns="http://www.w3.org/2000/svg">
<path d="M22.7145 3.32323C22.1532 2.751 21.4867 2.29706 20.7531 1.98736C20.0195 1.67766 19.2332 1.51825 18.4391 1.51825C17.645 1.51825 16.8587 1.67766 16.1251 1.98736C15.3915 2.29706 14.725 2.751 14.1636 3.32323L12.9986 4.51026L11.8336 3.32323C10.6996 2.1679 9.16172 1.51885 7.55812 1.51885C5.95451 1.51885 4.41659 2.1679 3.28267 3.32323C2.14875 4.47856 1.51172 6.04552 1.51172 7.6794C1.51172 9.31328 2.14875 10.8802 3.28267 12.0356L4.4477 13.2226L12.9986 21.9349L21.5495 13.2226L22.7145 12.0356C23.2762 11.4636 23.7217 10.7845 24.0257 10.0371C24.3296 9.28961 24.4861 8.48846 24.4861 7.6794C24.4861 6.87033 24.3296 6.06919 24.0257 5.32174C23.7217 4.5743 23.2762 3.89519 22.7145 3.32323V3.32323Z" stroke="#D6C283" stroke-width="1.84199" stroke-linecap="round" stroke-linejoin="round"/>
</svg>
