<svg width="46" height="205" viewBox="0 0 46 205" fill="none" xmlns="http://www.w3.org/2000/svg">
<g clip-path="url(#clip0_1549_23750)">
<path d="M45.9527 54.1489H0.0507812C0.0507812 66.6521 10.3254 76.789 22.9991 76.789C35.6754 76.7864 45.9527 66.6495 45.9527 54.1489Z" fill="#D6C283"/>
<path d="M0.0507812 76.7866C0.0507812 89.2898 10.3281 99.4267 23.0044 99.4267C35.6807 99.4267 45.9527 89.2898 45.9527 76.7866H22.9991H0.0507812V76.7866Z" fill="#D6C283"/>
<path d="M35.4599 182.433C41.3394 181.95 45.9545 177.086 45.9413 171.159C45.9307 164.923 40.796 159.882 34.4764 159.893L34.5215 182.386H34.4552V193.71H24.1461C29.9408 193.143 34.4605 188.314 34.4473 182.452C34.434 176.603 29.9117 171.794 24.1302 171.232L34.4632 171.214C34.4499 164.983 29.3152 159.942 23.0009 159.948C16.6866 159.942 11.552 164.981 11.5387 171.214L21.8717 171.232C16.0902 171.792 11.5679 176.6 11.5546 182.452C11.5414 188.314 16.061 193.145 21.8558 193.71H11.5467V182.386H11.4804L11.5255 159.893C5.2032 159.88 0.0685279 164.923 0.0605754 171.159C0.0473212 177.086 4.66243 181.95 10.542 182.433C4.69424 182.933 0.102989 187.778 0.102989 193.674C0.102989 199.915 5.22441 204.971 11.5467 204.971V194.095C11.7534 200.15 16.7953 205.003 22.9877 205.003H23.0009H23.0142C29.2065 205.003 34.2484 200.15 34.4552 194.095V204.971C40.7775 204.971 45.8989 199.915 45.8989 193.674C45.8962 187.775 41.3076 182.933 35.4599 182.433Z" fill="#D6C283"/>
<path d="M23.0013 108.204L25.4534 121.86L34.5007 111.242L29.7026 124.278L42.9197 119.546L32.1547 128.47L46 130.888L32.1547 133.307L42.9197 142.233L29.7026 137.498L34.5007 150.534L25.4534 139.916L23.0013 153.575L20.5466 139.916L11.4993 150.534L16.3 137.498L3.08027 142.233L13.8453 133.307L0 130.888L13.8453 128.47L3.08027 119.546L16.3 124.278L11.4993 111.242L20.5466 121.86L23.0013 108.204Z" fill="#D6C283"/>
<path d="M45.9581 15.6433V0H36.6219C32.2533 0.020917 28.7171 3.51668 28.7171 7.8282C28.7171 11.9933 32.0174 15.4002 36.1739 15.6433H16.3721C20.5393 15.4054 23.8422 11.9985 23.8422 7.8282C23.8422 3.50622 20.2874 0 15.9029 0C11.5238 0 7.97428 3.49576 7.96633 7.81251L0.0429688 0V15.6459C0.0429688 21.3354 2.17424 26.5306 5.68926 30.5101C2.17689 34.487 0.0429688 39.6848 0.0429688 45.3743H45.9555C45.9555 39.6848 43.8216 34.4896 40.3092 30.5101C43.8242 26.5306 45.9581 21.3354 45.9581 15.6433L36.6086 15.6459L36.6484 0.0470633L45.9581 15.6433Z" fill="#D6C283"/>
<path d="M26.2684 5.34953C27.7661 5.34953 28.9803 4.152 28.9803 2.67477C28.9803 1.19753 27.7661 0 26.2684 0C24.7708 0 23.5566 1.19753 23.5566 2.67477C23.5566 4.152 24.7708 5.34953 26.2684 5.34953Z" fill="#D6C283"/>
</g>
<defs>
<clipPath id="clip0_1549_23750">
<rect width="46" height="205" fill="white"/>
</clipPath>
</defs>
</svg>
