<svg width="127" height="37" viewBox="0 0 127 37" fill="none" xmlns="http://www.w3.org/2000/svg">
<path d="M82.9195 0.0400391H46.6895C46.6895 10.05 54.7995 18.16 64.8095 18.16C74.8095 18.16 82.9195 10.04 82.9195 0.0400391Z" fill="#D6C283"/>
<path d="M46.6895 18.1602C46.6895 28.1702 54.7995 36.2802 64.8095 36.2802C74.8195 36.2802 82.9295 28.1702 82.9295 18.1602H64.7995H46.6895Z" fill="#D6C283"/>
<path d="M108.211 0L110.151 10.93L117.291 2.43L113.501 12.87L123.941 9.08L115.441 16.22L126.371 18.16L115.441 20.09L123.941 27.24L113.501 23.45L117.291 33.88L110.151 25.38L108.211 36.31L106.281 25.38L99.1308 33.88L102.921 23.45L92.4908 27.24L100.981 20.09L90.0508 18.16L100.981 16.22L92.4908 9.08L102.921 12.87L99.1308 2.43L106.281 10.93L108.211 0Z" fill="#D6C283"/>
<path d="M36.25 12.52V0H28.88C25.43 0.02 22.64 2.81 22.64 6.27C22.64 9.6 25.25 12.33 28.53 12.53H12.89C16.18 12.34 18.79 9.61 18.79 6.27C18.79 2.81 15.98 0 12.52 0C9.06 0 6.26 2.8 6.25 6.25L0 0V12.52C0 17.07 1.68 21.23 4.46 24.42C1.68 27.6 0 31.76 0 36.31H36.25C36.25 31.76 34.57 27.6 31.79 24.41C34.56 21.23 36.25 17.08 36.25 12.52H28.87L28.9 0.04L36.25 12.52Z" fill="#D6C283"/>
<path d="M20.7005 4.28C21.8824 4.28 22.8405 3.32189 22.8405 2.14C22.8405 0.958111 21.8824 0 20.7005 0C19.5187 0 18.5605 0.958111 18.5605 2.14C18.5605 3.32189 19.5187 4.28 20.7005 4.28Z" fill="#D6C283"/>
</svg>
