<svg width="17" height="17" viewBox="0 0 17 17" fill="none" xmlns="http://www.w3.org/2000/svg">
<path fill-rule="evenodd" clip-rule="evenodd" d="M7.66602 1.83329C4.44435 1.83329 1.83268 4.44496 1.83268 7.66663C1.83268 10.8883 4.44435 13.5 7.66602 13.5C9.23764 13.5 10.6641 12.8784 11.713 11.8678C11.7349 11.8393 11.759 11.8118 11.7851 11.7857C11.8112 11.7596 11.8386 11.7355 11.8672 11.7136C12.8778 10.6647 13.4993 9.23825 13.4993 7.66663C13.4993 4.44496 10.8877 1.83329 7.66602 1.83329ZM13.5259 12.348C14.5523 11.065 15.166 9.43747 15.166 7.66663C15.166 3.52449 11.8082 0.166626 7.66602 0.166626C3.52388 0.166626 0.166016 3.52449 0.166016 7.66663C0.166016 11.8088 3.52388 15.1666 7.66602 15.1666C9.43686 15.1666 11.0644 14.5529 12.3474 13.5265L15.4101 16.5892C15.7355 16.9147 16.2632 16.9147 16.5886 16.5892C16.914 16.2638 16.914 15.7361 16.5886 15.4107L13.5259 12.348Z" fill="#667085"/>
</svg>
